<svg width="24" height="24" viewBox="0 0 24 24" fill="none" xmlns="http://www.w3.org/2000/svg">
<path fill-rule="evenodd" clip-rule="evenodd" d="M23.9355 11.9007C23.9355 18.4374 18.5771 23.7369 11.9677 23.7369C5.3584 23.7369 0 18.4374 0 11.9007C0 5.36397 5.3584 0.0644531 11.9677 0.0644531C18.5771 0.0644531 23.9355 5.36397 23.9355 11.9007Z" fill="#55ACEE"/>
<path fill-rule="evenodd" clip-rule="evenodd" d="M19.2979 8.571C18.7853 8.7957 18.2333 8.94814 17.6552 9.01618C18.2459 8.66568 18.6989 8.11157 18.9136 7.45117C18.3605 7.77478 17.748 8.01056 17.0968 8.13742C16.5749 7.58726 15.8312 7.24414 15.0083 7.24414C13.428 7.24414 12.148 8.51139 12.148 10.073C12.148 10.2945 12.1728 10.511 12.2219 10.7181C9.84479 10.5997 7.73653 9.4735 6.32613 7.76133C6.07919 8.17961 5.93866 8.66568 5.93866 9.18392C5.93866 10.1658 6.44373 11.0322 7.21039 11.5391C6.74159 11.5246 6.30106 11.3969 5.91466 11.1846C5.91466 11.197 5.91466 11.2084 5.91466 11.2208C5.91466 12.5909 6.90106 13.7344 8.20933 13.9942C7.96986 14.0591 7.71679 14.0942 7.45626 14.0942C7.27199 14.0942 7.09279 14.0765 6.91759 14.0435C7.28239 15.1676 8.33866 15.9854 9.59066 16.0081C8.61146 16.7674 7.37813 17.2186 6.03759 17.2186C5.80613 17.2186 5.57813 17.2063 5.35519 17.1796C6.62079 17.9822 8.12399 18.4508 9.73946 18.4508C15.0011 18.4508 17.8792 14.1393 17.8792 10.4008C17.8792 10.2782 17.876 10.1566 17.8709 10.035C18.4301 9.63623 18.9147 9.13777 19.2979 8.571Z" fill="white"/>
</svg>